<svg width="75" height="70" viewBox="0 0 75 70" fill="none" xmlns="http://www.w3.org/2000/svg">
    <g clip-path="url(#clip0_4_18)">
        <path d="M42.444 65.5571L67.2969 49.7953C68.5805 48.8661 69.4183 47.2105 69.2571 45.7481L66.3859 19.6509C66.2172 18.2428 65.0429 16.6396 63.546 16.0438L35.6542 3.8572C33.9937 3.31295 32.2295 3.43752 30.8617 4.24293L7.60533 19.0084C6.34442 19.7745 5.49136 21.5389 5.66781 22.8927L8.70697 50.8408C8.87559 52.249 10.05 53.8523 11.5468 54.448L37.6516 65.9429C39.7617 66.6179 41.2075 66.2514 42.444 65.5571ZM37.8624 10.2566L57.0504 18.6296C57.795 18.9546 57.7497 19.2805 56.9522 19.3359L46.1603 20.0502C45.3553 20.1597 44.2681 19.6763 43.8074 19.0584L37.5333 10.8753C36.9608 10.1864 37.1179 9.9314 37.8624 10.2566ZM45.7854 44.5883C45.9256 45.3279 45.3287 45.688 44.5842 45.3629L23.9146 36.2854C23.17 35.9603 23.0744 35.3378 23.7383 34.9317L42.13 23.2559C42.8015 22.7955 43.427 23.1039 43.5075 23.8352L45.7854 44.5883ZM12.7941 21.8899L32.3197 9.48573C32.9912 9.02526 33.8702 9.25825 34.3982 9.83016L41.958 19.6874C42.4783 20.3136 42.2459 21.1121 41.6339 21.5808L22.108 33.985C21.4366 34.4454 20.5576 34.2124 20.0295 33.6406L12.4697 23.7833C11.9568 23.1027 12.1376 22.2417 12.7941 21.8899ZM13.7615 45.95L11.7411 26.8389C11.601 26.0995 11.9812 25.9861 12.442 26.604L18.7159 34.7872C19.2363 35.4134 19.2717 36.4706 18.9945 37.152L14.5361 46.058C14.1919 46.7854 13.8345 46.7355 13.7615 45.95ZM37.819 60.3725L15.8911 50.7324C15.1464 50.4072 14.7753 49.5802 15.1197 48.8528L20.4907 38.1907C20.8272 37.5175 21.7221 37.1989 22.5262 37.5323L44.4617 47.1181C45.2063 47.4432 45.5773 48.2701 45.233 48.9977L39.8621 59.6598C39.4658 60.3245 38.6307 60.6515 37.819 60.3725ZM60.1911 48.0317L43.135 58.841C42.4635 59.3015 42.1956 59.0427 42.5322 58.3694L46.9908 49.4636C47.3274 48.7905 48.2675 48.1459 49.1172 48.1532L59.9091 47.4387C60.7217 47.2749 60.7955 47.6172 60.1911 48.0317ZM62.2528 45.4385L49.3143 46.2975C48.5093 46.4071 47.7431 45.802 47.6624 45.0708L45.2452 23.1352C45.105 22.3957 45.7473 21.7097 46.5447 21.6544L59.4831 20.7953C60.2882 20.6858 61.0545 21.2908 61.1351 22.022L63.5523 43.9577C63.6178 44.7975 63.0428 45.4375 62.2528 45.4385Z" fill="white"/>
    </g>
    <defs>
        <clipPath id="clip0_4_18">
            <rect width="66.3504" height="61.4463" fill="white" transform="translate(8.74596) rotate(7.91736)"/>
        </clipPath>
    </defs>
</svg>