<svg width="374" height="78" viewBox="0 0 374 78" fill="none" xmlns="http://www.w3.org/2000/svg">
    <path d="M81.4522 38.5795C81.4392 37.5396 81.66 36.6488 82.1148 35.907C82.5695 35.1652 83.1704 34.5977 83.9176 34.2043C84.6807 33.8107 85.5182 33.6082 86.4301 33.5967C87.2301 33.5867 87.9353 33.6819 88.5459 33.8822C89.1562 34.0666 89.7036 34.3317 90.188 34.6777C90.6722 35.0077 91.1006 35.3623 91.4734 35.7417L91.4187 31.374C90.7401 30.8545 89.9989 30.4477 89.1952 30.1538C88.3915 29.8598 87.3736 29.7206 86.1417 29.736C84.7978 29.7529 83.5605 29.9764 82.4298 30.4066C81.2991 30.8368 80.3307 31.449 79.5246 32.2432C78.7185 33.0373 78.0982 33.9732 77.6637 35.0507C77.2291 36.1282 77.0201 37.323 77.0365 38.6349C77.053 39.9468 77.2919 41.1359 77.7533 42.2022C78.2147 43.2685 78.8583 44.1885 79.6841 44.9622C80.5098 45.7359 81.4933 46.3236 82.6344 46.7253C83.7755 47.1271 85.018 47.3195 86.3619 47.3027C87.5938 47.2872 88.6078 47.1225 89.404 46.8085C90.2001 46.4945 90.9308 46.0693 91.5962 45.5329L91.5414 41.1653C91.1782 41.5538 90.7588 41.9191 90.283 42.2611C89.8073 42.6031 89.2667 42.8819 88.6614 43.0975C88.056 43.3131 87.3534 43.4259 86.5535 43.4359C85.6415 43.4474 84.7992 43.2659 84.0264 42.8916C83.2697 42.517 82.6547 41.9647 82.1815 41.2346C81.7081 40.4885 81.465 39.6034 81.4522 38.5795ZM97.6163 46.7775L106.088 46.6714L106.046 43.3356L97.5745 43.4418L97.6163 46.7775ZM97.4476 33.3146L105.919 33.2084L105.877 29.8727L97.4058 29.9789L97.4476 33.3146ZM97.5261 39.5781L105.517 39.4779L105.477 36.2142L97.4852 36.3144L97.5261 39.5781ZM94.718 30.0126L94.9286 46.8112L98.8163 46.7625L98.6057 29.9638L94.718 30.0126ZM120.769 29.686L120.887 39.1413L109.167 28.9914L109.388 46.63L113.276 46.5813L113.158 37.126L124.902 47.2756L124.681 29.637L120.769 29.686ZM126.597 33.2372L131.204 33.1795L131.369 46.3544L135.425 46.3036L135.26 33.1286L139.891 33.0706L139.846 29.4469L126.551 29.6135L126.597 33.2372ZM145.998 38.5625L150.797 46.1109L155.549 46.0514L150.198 38.5098L145.998 38.5625ZM141.683 29.4238L141.894 46.2225L145.949 46.1717L145.739 29.373L141.683 29.4238ZM144.27 32.8237L147.558 32.7825C148.102 32.7757 148.567 32.8578 148.953 33.029C149.355 33.2 149.662 33.4521 149.874 33.7855C150.086 34.1029 150.195 34.4935 150.201 34.9575C150.207 35.4215 150.108 35.8227 149.904 36.1613C149.7 36.4839 149.399 36.7357 149.002 36.9167C148.62 37.0815 148.157 37.1673 147.613 37.1741L144.325 37.2153L144.364 40.3591L147.94 40.3143C149.38 40.2962 150.577 40.0492 151.531 39.5732C152.485 39.0972 153.205 38.4481 153.691 37.626C154.176 36.7878 154.412 35.8328 154.399 34.7609C154.385 33.673 154.125 32.7241 153.619 31.9144C153.113 31.0887 152.377 30.4499 151.411 29.998C150.445 29.546 149.242 29.3291 147.803 29.3471L144.227 29.392L144.27 32.8237ZM160.119 45.9941L168.591 45.8879L168.549 42.5521L160.077 42.6583L160.119 45.9941ZM159.95 32.5311L168.422 32.4249L168.38 29.0892L159.909 29.1954L159.95 32.5311ZM160.029 38.7946L168.02 38.6945L167.979 35.4307L159.988 35.5309L160.029 38.7946ZM157.221 29.2291L157.431 46.0278L161.319 45.979L161.109 29.1803L157.221 29.2291ZM178.875 28.9576L179.086 45.7563L183.262 45.704L183.051 28.9053L178.875 28.9576ZM185.086 45.6811C186.925 45.658 188.513 45.2941 189.848 44.5893C191.184 43.8845 192.211 42.9036 192.932 41.6464C193.652 40.3733 194.001 38.8808 193.98 37.169C193.958 35.4411 193.571 33.9578 192.82 32.7191C192.068 31.4805 191.016 30.5256 189.664 29.8545C188.311 29.1834 186.715 28.8594 184.875 28.8824L181.563 28.9239L181.608 32.5237L184.776 32.4839C185.416 32.4759 186.033 32.5482 186.627 32.7008C187.237 32.8531 187.768 33.1105 188.221 33.4728C188.689 33.835 189.064 34.3264 189.343 34.9469C189.623 35.5514 189.768 36.3097 189.78 37.2216C189.791 38.1335 189.665 38.9032 189.401 39.5305C189.136 40.1419 188.775 40.6345 188.315 41.0083C187.872 41.3818 187.347 41.6524 186.741 41.82C186.151 41.9875 185.536 42.0752 184.896 42.0832L181.729 42.1229L181.774 45.7226L185.086 45.6811ZM199.374 45.502L207.845 45.3958L207.804 42.0601L199.332 42.1663L199.374 45.502ZM199.205 32.0391L207.677 31.9329L207.635 28.5971L199.163 28.7033L199.205 32.0391ZM199.284 38.3026L207.275 38.2024L207.234 34.9386L199.243 35.0388L199.284 38.3026ZM196.476 28.737L196.686 45.5357L200.574 45.487L200.363 28.6883L196.476 28.737ZM218.13 28.4656L218.341 45.2642L222.516 45.2119L222.306 28.4132L218.13 28.4656ZM224.34 45.189C226.18 45.166 227.768 44.802 229.103 44.0973C230.438 43.3925 231.466 42.4115 232.186 41.1544C232.906 39.8813 233.256 38.3888 233.234 36.6769C233.213 34.949 232.826 33.4658 232.074 32.2271C231.323 30.9884 230.271 30.0335 228.918 29.3624C227.566 28.6913 225.97 28.3673 224.13 28.3904L220.818 28.4319L220.863 32.0316L224.031 31.9919C224.671 31.9839 225.288 32.0561 225.882 32.2087C226.492 32.3611 227.023 32.6184 227.475 32.9808C227.944 33.3429 228.318 33.8343 228.598 34.4548C228.878 35.0594 229.023 35.8176 229.035 36.7295C229.046 37.6415 228.92 38.4111 228.656 39.0385C228.391 39.6498 228.029 40.1424 227.57 40.5162C227.127 40.8898 226.602 41.1604 225.996 41.328C225.406 41.4954 224.791 41.5831 224.151 41.5911L220.983 41.6308L221.029 45.2306L224.34 45.189ZM239.171 36.6025C239.159 35.6105 239.34 34.7362 239.715 33.9795C240.105 33.2065 240.649 32.5996 241.348 32.1588C242.062 31.7178 242.9 31.4913 243.86 31.4793C244.835 31.4671 245.678 31.6725 246.387 32.0957C247.097 32.5188 247.648 33.1119 248.042 33.8751C248.435 34.6222 248.638 35.4917 248.651 36.4836C248.663 37.4756 248.474 38.358 248.084 39.131C247.709 39.8877 247.165 40.4866 246.45 40.9276C245.752 41.3684 244.93 41.5947 243.986 41.6065C243.027 41.6185 242.184 41.4131 241.459 40.9901C240.749 40.567 240.19 39.982 239.78 39.235C239.387 38.4719 239.184 37.5944 239.171 36.6025ZM234.876 36.6563C234.892 37.9522 235.123 39.1414 235.568 40.2239C236.03 41.3062 236.666 42.2423 237.476 43.0322C238.302 43.8219 239.27 44.4339 240.379 44.868C241.488 45.2861 242.707 45.4869 244.035 45.4702C245.347 45.4538 246.552 45.2226 247.65 44.7768C248.749 44.315 249.693 43.6791 250.483 42.8692C251.289 42.059 251.901 41.1073 252.319 40.0139C252.753 38.9204 252.963 37.7257 252.946 36.4298C252.93 35.1339 252.691 33.9528 252.23 32.8865C251.768 31.8202 251.125 30.9002 250.299 30.1265C249.473 29.3528 248.506 28.7649 247.397 28.3627C246.303 27.9444 245.109 27.7434 243.813 27.7596C242.533 27.7756 241.344 28.0066 240.245 28.4524C239.147 28.8822 238.194 29.4942 237.388 30.2883C236.582 31.0825 235.954 32.0184 235.503 33.0962C235.069 34.1737 234.859 35.3604 234.876 36.6563ZM267.031 27.8526L267.149 37.3078L255.429 27.1579L255.65 44.7966L259.538 44.7478L259.419 35.2926L271.164 45.4422L270.943 27.8036L267.031 27.8526ZM286.084 27.6137L286.203 37.069L274.482 26.9191L274.703 44.5577L278.591 44.509L278.473 35.0537L290.217 45.2033L289.996 27.5647L286.084 27.6137ZM296.444 44.2852L304.916 44.179L304.874 40.8433L296.403 40.9495L296.444 44.2852ZM296.276 30.8223L304.747 30.7161L304.705 27.3803L296.234 27.4865L296.276 30.8223ZM296.354 37.0858L304.346 36.9856L304.305 33.7218L296.313 33.822L296.354 37.0858ZM293.546 27.5202L293.757 44.3189L297.644 44.2702L297.434 27.4715L293.546 27.5202ZM310.904 44.1039L319.376 43.9978L319.334 40.662L310.862 40.7682L310.904 44.1039ZM310.736 30.641L319.207 30.5348L319.165 27.1991L310.694 27.3053L310.736 30.641ZM310.814 36.9045L318.805 36.8043L318.764 33.5406L310.773 33.6408L310.814 36.9045ZM308.006 27.339L308.216 44.1376L312.104 44.0889L311.894 27.2902L308.006 27.339ZM324.45 38.0297L321.644 40.105C322.038 40.9001 322.583 41.6294 323.279 42.2927C323.976 42.956 324.791 43.4818 325.723 43.8702C326.672 44.2423 327.691 44.4216 328.778 44.4079C329.562 44.3981 330.321 44.2686 331.054 44.0194C331.803 43.786 332.463 43.4417 333.033 42.9865C333.619 42.5311 334.076 41.9733 334.404 41.3132C334.748 40.6368 334.914 39.8747 334.903 39.0267C334.895 38.3228 334.775 37.7002 334.544 37.1591C334.313 36.6179 333.995 36.1419 333.59 35.7309C333.201 35.3198 332.748 34.9734 332.233 34.6919C331.717 34.3943 331.162 34.1372 330.567 33.9207C329.78 33.6585 329.105 33.411 328.542 33.178C327.995 32.9449 327.567 32.6862 327.26 32.402C326.968 32.1177 326.82 31.7835 326.815 31.3995C326.811 31.0315 326.959 30.7257 327.26 30.4819C327.561 30.2221 327.999 30.0886 328.575 30.0814C329.007 30.0759 329.408 30.1589 329.778 30.3303C330.164 30.4855 330.511 30.7131 330.819 31.0133C331.142 31.2973 331.427 31.6377 331.672 32.0347L334.746 30.268C334.45 29.6957 334.027 29.1329 333.476 28.5798C332.925 28.0267 332.232 27.5713 331.395 27.2138C330.575 26.856 329.604 26.6842 328.484 26.6982C327.397 26.7119 326.407 26.9163 325.516 27.3115C324.641 27.6905 323.943 28.2433 323.425 28.9698C322.922 29.6962 322.676 30.5553 322.689 31.5472C322.699 32.3792 322.86 33.0892 323.171 33.6774C323.483 34.2495 323.873 34.7407 324.342 35.1508C324.811 35.545 325.303 35.8668 325.818 36.1164C326.349 36.3657 326.816 36.5599 327.218 36.6989C328.037 36.9926 328.697 37.2564 329.196 37.4902C329.695 37.7239 330.058 37.9754 330.285 38.2446C330.512 38.4977 330.629 38.8403 330.634 39.2723C330.641 39.7842 330.454 40.1946 330.074 40.5034C329.693 40.7962 329.207 40.9463 328.615 40.9537C328.055 40.9607 327.518 40.8475 327.003 40.6139C326.504 40.3801 326.035 40.042 325.598 39.5994C325.176 39.1567 324.794 38.6334 324.45 38.0297Z" fill="black"/>
    <g clip-path="url(#clip0_4_23)">
        <path d="M42.444 67.5571L67.2969 51.7953C68.5805 50.8661 69.4183 49.2105 69.2571 47.7481L66.3859 21.6509C66.2172 20.2428 65.0429 18.6396 63.546 18.0438L35.6542 5.85721C33.9937 5.31295 32.2295 5.43752 30.8617 6.24293L7.60533 21.0084C6.34442 21.7745 5.49136 23.5389 5.66781 24.8927L8.70697 52.8408C8.87559 54.249 10.05 55.8523 11.5468 56.448L37.6516 67.9429C39.7617 68.6179 41.2075 68.2514 42.444 67.5571V67.5571ZM37.8624 12.2566L57.0504 20.6296C57.795 20.9546 57.7497 21.2805 56.9522 21.3359L46.1603 22.0502C45.3553 22.1597 44.2681 21.6763 43.8074 21.0584L37.5333 12.8753C36.9608 12.1864 37.1178 11.9313 37.8623 12.2564L37.8624 12.2566ZM45.7854 46.5883C45.9256 47.3279 45.3287 47.688 44.5842 47.3629L23.9146 38.2854C23.17 37.9603 23.0744 37.3378 23.7383 36.9317L42.13 25.2559C42.8015 24.7955 43.427 25.1039 43.5075 25.8352L45.7854 46.5884L45.7854 46.5883ZM12.7941 23.8899L32.3197 11.4857C32.9912 11.0253 33.8702 11.2582 34.3982 11.8302L41.958 21.6874C42.4783 22.3136 42.2459 23.1121 41.6339 23.5808L22.108 35.985C21.4366 36.4454 20.5576 36.2124 20.0295 35.6406L12.4697 25.7833C11.9568 25.1027 12.1373 24.2417 12.7938 23.8899L12.7941 23.8899ZM13.7615 47.95L11.7411 28.8389C11.601 28.0995 11.9812 27.9861 12.442 28.604L18.7159 36.7872C19.2363 37.4134 19.2717 38.4706 18.9945 39.152L14.5361 48.058C14.1919 48.7854 13.8343 48.7357 13.7613 47.9502L13.7615 47.95ZM37.819 62.3725L15.8911 52.7324C15.1464 52.4072 14.7753 51.5802 15.1197 50.8528L20.4907 40.1907C20.8272 39.5175 21.7221 39.1989 22.5262 39.5323L44.4617 49.1181C45.2063 49.4432 45.5773 50.2701 45.233 50.9977L39.8621 61.6598C39.4658 62.3245 38.6306 62.6515 37.8189 62.3725L37.819 62.3725ZM60.1911 50.0317L43.135 60.841C42.4635 61.3015 42.1956 61.0427 42.5322 60.3694L46.9908 51.4636C47.3274 50.7905 48.2675 50.1459 49.1172 50.1532L59.9091 49.4387C60.7217 49.2749 60.7955 49.6174 60.1911 50.0318L60.1911 50.0317ZM62.2528 47.4385L49.3143 48.2975C48.5093 48.4071 47.7431 47.802 47.6624 47.0708L45.2452 25.1352C45.105 24.3957 45.7473 23.7097 46.5447 23.6544L59.4832 22.7953C60.2882 22.6858 61.0545 23.2908 61.1351 24.022L63.5523 45.9577C63.6178 46.7975 63.0428 47.4375 62.2528 47.4385Z" fill="#F5821E"/>
    </g>
    <defs>
        <clipPath id="clip0_4_23">
            <rect width="66.3504" height="61.4463" fill="white" transform="translate(8.74596 2) rotate(7.91736)"/>
        </clipPath>
    </defs>
</svg>
