
<svg width="211" height="73" viewBox="0 0 211 73" fill="none" xmlns="http://www.w3.org/2000/svg">
    <path d="M75.3006 21.1298V32.3298H78.0846V21.1298H75.3006ZM79.3006 32.3298C80.5273 32.3298 81.5886 32.1005 82.4846 31.6418C83.3806 31.1831 84.074 30.5378 84.5646 29.7058C85.0553 28.8631 85.3006 27.8711 85.3006 26.7298C85.3006 25.5778 85.0553 24.5858 84.5646 23.7538C84.074 22.9218 83.3806 22.2765 82.4846 21.8178C81.5886 21.3591 80.5273 21.1298 79.3006 21.1298H77.0926V23.5298H79.2046C79.6313 23.5298 80.042 23.5831 80.4366 23.6898C80.842 23.7965 81.194 23.9725 81.4926 24.2178C81.802 24.4631 82.0473 24.7938 82.2286 25.2098C82.41 25.6151 82.5006 26.1218 82.5006 26.7298C82.5006 27.3378 82.41 27.8498 82.2286 28.2658C82.0473 28.6711 81.802 28.9965 81.4926 29.2418C81.194 29.4871 80.842 29.6631 80.4366 29.7698C80.042 29.8765 79.6313 29.9298 79.2046 29.9298H77.0926V32.3298H79.3006ZM88.3106 30.1698H94.2306L94.0546 28.1058H88.5026L88.3106 30.1698ZM91.2386 25.2418L92.8226 28.8738L92.7266 29.5618L94.0706 32.3298H97.1426L91.2386 20.4258L85.3506 32.3298H88.4066L89.7986 29.4498L89.6706 28.8578L91.2386 25.2418ZM96.0712 23.5458H99.1432V32.3298H101.847V23.5458H104.935V21.1298H96.0712V23.5458ZM106.326 30.1698H112.246L112.07 28.1058H106.518L106.326 30.1698ZM109.254 25.2418L110.838 28.8738L110.742 29.5618L112.086 32.3298H115.158L109.254 20.4258L103.366 32.3298H106.422L107.814 29.4498L107.686 28.8578L109.254 25.2418ZM123.433 26.7298C123.433 26.0365 123.587 25.4445 123.897 24.9538C124.206 24.4631 124.611 24.0898 125.113 23.8338C125.625 23.5778 126.185 23.4498 126.793 23.4498C127.326 23.4498 127.795 23.5191 128.201 23.6578C128.606 23.7858 128.969 23.9671 129.289 24.2018C129.609 24.4258 129.891 24.6658 130.137 24.9218V22.0098C129.689 21.6578 129.198 21.3805 128.665 21.1778C128.131 20.9751 127.454 20.8738 126.633 20.8738C125.737 20.8738 124.91 21.0125 124.153 21.2898C123.395 21.5671 122.745 21.9671 122.201 22.4898C121.657 23.0125 121.235 23.6311 120.937 24.3458C120.638 25.0605 120.489 25.8551 120.489 26.7298C120.489 27.6045 120.638 28.3991 120.937 29.1138C121.235 29.8285 121.657 30.4471 122.201 30.9698C122.745 31.4925 123.395 31.8925 124.153 32.1698C124.91 32.4471 125.737 32.5858 126.633 32.5858C127.454 32.5858 128.131 32.4845 128.665 32.2818C129.198 32.0791 129.689 31.8018 130.137 31.4498V28.5378C129.891 28.7938 129.609 29.0338 129.289 29.2578C128.969 29.4818 128.606 29.6631 128.201 29.8018C127.795 29.9405 127.326 30.0098 126.793 30.0098C126.185 30.0098 125.625 29.8818 125.113 29.6258C124.611 29.3698 124.206 28.9965 123.897 28.5058C123.587 28.0045 123.433 27.4125 123.433 26.7298ZM134.139 32.3298H139.787V30.1058H134.139V32.3298ZM134.139 23.3538H139.787V21.1298H134.139V23.3538ZM134.139 27.5298H139.467V25.3538H134.139V27.5298ZM132.347 21.1298V32.3298H134.939V21.1298H132.347ZM149.716 21.1298V27.4338L141.988 20.5698V32.3298H144.58V26.0258L152.324 32.8898V21.1298H149.716ZM153.571 23.5458H156.643V32.3298H159.347V23.5458H162.435V21.1298H153.571V23.5458ZM165.452 32.3298H171.1V30.1058H165.452V32.3298ZM165.452 23.3538H171.1V21.1298H165.452V23.3538ZM165.452 27.5298H170.78V25.3538H165.452V27.5298ZM163.66 21.1298V32.3298H166.252V21.1298H163.66ZM176.101 27.2578L179.237 32.3298H182.405L178.901 27.2578H176.101ZM173.301 21.1298V32.3298H176.005V21.1298H173.301ZM174.997 23.4178H177.189C177.551 23.4178 177.861 23.4765 178.117 23.5938C178.383 23.7111 178.586 23.8818 178.725 24.1058C178.863 24.3191 178.933 24.5805 178.933 24.8898C178.933 25.1991 178.863 25.4658 178.725 25.6898C178.586 25.9031 178.383 26.0685 178.117 26.1858C177.861 26.2925 177.551 26.3458 177.189 26.3458H174.997V28.4418H177.381C178.341 28.4418 179.141 28.2871 179.781 27.9778C180.421 27.6685 180.906 27.2418 181.237 26.6978C181.567 26.1431 181.733 25.5085 181.733 24.7938C181.733 24.0685 181.567 23.4338 181.237 22.8898C180.906 22.3351 180.421 21.9031 179.781 21.5938C179.141 21.2845 178.341 21.1298 177.381 21.1298H174.997V23.4178Z" fill="black"/>
    <g style="mix-blend-mode:multiply">
        <path d="M78.0401 45.4117L81.0961 50.0837L84.1681 45.4117L84.8401 51.1237H87.6881L85.8801 39.3637L81.0961 46.1957L76.3281 39.3637L74.5201 51.1237H77.3681L78.0401 45.4117ZM89.4101 39.9237V51.1237H92.1621V39.9237H89.4101ZM102.263 39.9237V46.2277L94.5351 39.3637V51.1237H97.1271V44.8197L104.871 51.6837V39.9237H102.263ZM107.238 39.9237V51.1237H110.022V39.9237H107.238ZM111.238 51.1237C112.465 51.1237 113.526 50.8943 114.422 50.4357C115.318 49.977 116.012 49.3317 116.502 48.4997C116.993 47.657 117.238 46.665 117.238 45.5237C117.238 44.3717 116.993 43.3797 116.502 42.5477C116.012 41.7157 115.318 41.0703 114.422 40.6117C113.526 40.153 112.465 39.9237 111.238 39.9237H109.03V42.3237H111.142C111.569 42.3237 111.98 42.377 112.374 42.4837C112.78 42.5903 113.132 42.7663 113.43 43.0117C113.74 43.257 113.985 43.5877 114.166 44.0037C114.348 44.409 114.438 44.9157 114.438 45.5237C114.438 46.1317 114.348 46.6437 114.166 47.0597C113.985 47.465 113.74 47.7903 113.43 48.0357C113.132 48.281 112.78 48.457 112.374 48.5637C111.98 48.6703 111.569 48.7237 111.142 48.7237H109.03V51.1237H111.238ZM118.973 39.9237V51.1237H121.757V39.9237H118.973ZM122.973 51.1237C124.199 51.1237 125.261 50.8943 126.157 50.4357C127.053 49.977 127.746 49.3317 128.237 48.4997C128.727 47.657 128.973 46.665 128.973 45.5237C128.973 44.3717 128.727 43.3797 128.237 42.5477C127.746 41.7157 127.053 41.0703 126.157 40.6117C125.261 40.153 124.199 39.9237 122.973 39.9237H120.765V42.3237H122.877C123.303 42.3237 123.714 42.377 124.109 42.4837C124.514 42.5903 124.866 42.7663 125.165 43.0117C125.474 43.257 125.719 43.5877 125.901 44.0037C126.082 44.409 126.173 44.9157 126.173 45.5237C126.173 46.1317 126.082 46.6437 125.901 47.0597C125.719 47.465 125.474 47.7903 125.165 48.0357C124.866 48.281 124.514 48.457 124.109 48.5637C123.714 48.6703 123.303 48.7237 122.877 48.7237H120.765V51.1237H122.973ZM132.499 51.1237H138.147V48.8997H132.499V51.1237ZM132.499 42.1477H138.147V39.9237H132.499V42.1477ZM132.499 46.3237H137.827V44.1477H132.499V46.3237ZM130.707 39.9237V51.1237H133.299V39.9237H130.707ZM145.036 46.6117L142.3 39.9237H139.148L145.036 51.8277L150.94 39.9237H147.772L145.036 46.6117ZM153.905 51.1237H159.553V48.8997H153.905V51.1237ZM153.905 42.1477H159.553V39.9237H153.905V42.1477ZM153.905 46.3237H159.233V44.1477H153.905V46.3237ZM152.113 39.9237V51.1237H154.705V39.9237H152.113ZM161.754 39.9237V51.1237H168.954V48.8037H164.458V39.9237H161.754Z" fill="black"/>
    </g>
    <g clip-path="url(#clip0_4_23)">
        <path d="M45.3989 62.7097L65.427 45.6307C66.4472 44.6463 66.9842 43.0714 66.662 41.7917L60.9167 18.9542C60.5945 17.7237 59.3596 16.444 57.9634 16.0996L31.8142 8.71662C30.2798 8.43816 28.7359 8.76691 27.626 9.65171L8.88648 25.648C7.86623 26.4846 7.32915 28.1581 7.65149 29.3393L13.7727 53.801C14.0948 55.0316 15.3298 56.3112 16.726 56.6557L41.2107 63.6447C43.1586 63.9838 44.3914 63.4795 45.3989 62.7097V62.7097ZM34.5525 14.1308L52.5403 19.2003C53.2383 19.3971 53.2383 19.6924 52.5403 19.8401L43.09 21.8087C42.392 22.0056 41.3718 21.7103 40.8886 21.2181L34.3376 14.7213C33.747 14.1799 33.8544 13.9337 34.5524 14.1306L34.5525 14.1308ZM45.7747 43.6619C45.9896 44.3018 45.5063 44.6956 44.8083 44.4987L25.4244 38.9862C24.7264 38.7893 24.5654 38.2479 25.1022 37.805L39.922 25.1557C40.4589 24.6635 41.0496 24.8604 41.2107 25.5003L45.7747 43.662V43.6619ZM13.8265 27.5674L29.559 14.1308C30.0958 13.6386 30.9013 13.737 31.4383 14.18L39.3314 22.0057C39.8682 22.4979 39.761 23.2362 39.2777 23.7283L23.545 37.1651C23.0082 37.6572 22.2026 37.5588 21.6657 37.1159L13.7726 29.2901C13.2356 28.7487 13.2893 27.9612 13.8263 27.5674H13.8265ZM17.6389 48.8299L13.5042 32.0957C13.2894 31.4559 13.6116 31.3081 14.0948 31.8003L20.6456 38.2973C21.1825 38.7894 21.3437 39.7246 21.1825 40.3644L18.3368 48.8301C18.1219 49.5191 17.7998 49.5191 17.6387 48.8301L17.6389 48.8299ZM40.674 58.6737L20.1088 52.8167C19.4107 52.6198 18.9811 51.9307 19.1961 51.2417L22.6325 41.1026C22.8472 40.4627 23.5989 40.0689 24.3506 40.2659L44.9158 46.0737C45.6138 46.2705 46.0434 46.9596 45.8285 47.6487L42.3921 57.7878C42.1236 58.4276 41.4256 58.8213 40.6739 58.6737H40.674ZM58.93 44.9415L45.1841 56.6557C44.6472 57.1479 44.3787 56.9511 44.5934 56.3111L47.4393 47.8456C47.654 47.2057 48.4058 46.5167 49.1576 46.4182L58.6079 44.4495C59.3059 44.2034 59.4132 44.4987 58.93 44.9417V44.9415ZM60.4334 42.3822L49.1038 44.7447C48.4058 44.9416 47.6542 44.4986 47.493 43.8587L42.6604 24.6634C42.4457 24.0236 42.929 23.3346 43.627 23.1868L54.9566 20.8243C55.6546 20.6275 56.4063 21.0705 56.5674 21.7103L61.3999 40.9056C61.561 41.6439 61.1315 42.2837 60.4334 42.3822Z" fill="#f5821e"/>
    </g>
    <defs>
        <clipPath id="clip0_4_23">
            <rect width="59.206" height="55.1323" fill="white" transform="translate(7.55821 8.61442)"/>
        </clipPath>
    </defs>
</svg>
