<svg width="252" height="73" viewBox="0 0 252 73" fill="none" xmlns="http://www.w3.org/2000/svg">
    <path d="M73.488 24.4C73.488 23.7067 73.6427 23.1147 73.952 22.624C74.2613 22.1333 74.6667 21.76 75.168 21.504C75.68 21.248 76.24 21.12 76.848 21.12C77.3813 21.12 77.8507 21.1893 78.256 21.328C78.6613 21.456 79.024 21.6373 79.344 21.872C79.664 22.096 79.9467 22.336 80.192 22.592V19.68C79.744 19.328 79.2533 19.0507 78.72 18.848C78.1867 18.6453 77.5093 18.544 76.688 18.544C75.792 18.544 74.9653 18.6827 74.208 18.96C73.4507 19.2373 72.8 19.6373 72.256 20.16C71.712 20.6827 71.2907 21.3013 70.992 22.016C70.6933 22.7307 70.544 23.5253 70.544 24.4C70.544 25.2747 70.6933 26.0693 70.992 26.784C71.2907 27.4987 71.712 28.1173 72.256 28.64C72.8 29.1627 73.4507 29.5627 74.208 29.84C74.9653 30.1173 75.792 30.256 76.688 30.256C77.5093 30.256 78.1867 30.1547 78.72 29.952C79.2533 29.7493 79.744 29.472 80.192 29.12V26.208C79.9467 26.464 79.664 26.704 79.344 26.928C79.024 27.152 78.6613 27.3333 78.256 27.472C77.8507 27.6107 77.3813 27.68 76.848 27.68C76.24 27.68 75.68 27.552 75.168 27.296C74.6667 27.04 74.2613 26.6667 73.952 26.176C73.6427 25.6747 73.488 25.0827 73.488 24.4ZM84.1948 30H89.8428V27.776H84.1948V30ZM84.1948 21.024H89.8428V18.8H84.1948V21.024ZM84.1948 25.2H89.5228V23.024H84.1948V25.2ZM82.4028 18.8V30H84.9948V18.8H82.4028ZM99.7714 18.8V25.104L92.0434 18.24V30H94.6354V23.696L102.379 30.56V18.8H99.7714ZM103.627 21.216H106.699V30H109.403V21.216H112.491V18.8H103.627V21.216ZM116.515 24.928L119.651 30H122.819L119.315 24.928H116.515ZM113.715 18.8V30H116.419V18.8H113.715ZM115.411 21.088H117.603C117.966 21.088 118.275 21.1467 118.531 21.264C118.798 21.3813 119.001 21.552 119.139 21.776C119.278 21.9893 119.347 22.2507 119.347 22.56C119.347 22.8693 119.278 23.136 119.139 23.36C119.001 23.5733 118.798 23.7387 118.531 23.856C118.275 23.9627 117.966 24.016 117.603 24.016H115.411V26.112H117.795C118.755 26.112 119.555 25.9573 120.195 25.648C120.835 25.3387 121.321 24.912 121.651 24.368C121.982 23.8133 122.147 23.1787 122.147 22.464C122.147 21.7387 121.982 21.104 121.651 20.56C121.321 20.0053 120.835 19.5733 120.195 19.264C119.555 18.9547 118.755 18.8 117.795 18.8H115.411V21.088ZM125.867 30H131.515V27.776H125.867V30ZM125.867 21.024H131.515V18.8H125.867V21.024ZM125.867 25.2H131.195V23.024H125.867V25.2ZM124.075 18.8V30H126.667V18.8H124.075ZM138.512 18.8V30H141.296V18.8H138.512ZM142.512 30C143.739 30 144.8 29.7707 145.696 29.312C146.592 28.8533 147.285 28.208 147.776 27.376C148.267 26.5333 148.512 25.5413 148.512 24.4C148.512 23.248 148.267 22.256 147.776 21.424C147.285 20.592 146.592 19.9467 145.696 19.488C144.8 19.0293 143.739 18.8 142.512 18.8H140.304V21.2H142.416C142.843 21.2 143.253 21.2533 143.648 21.36C144.053 21.4667 144.405 21.6427 144.704 21.888C145.013 22.1333 145.259 22.464 145.44 22.88C145.621 23.2853 145.712 23.792 145.712 24.4C145.712 25.008 145.621 25.52 145.44 25.936C145.259 26.3413 145.013 26.6667 144.704 26.912C144.405 27.1573 144.053 27.3333 143.648 27.44C143.253 27.5467 142.843 27.6 142.416 27.6H140.304V30H142.512ZM152.039 30H157.687V27.776H152.039V30ZM152.039 21.024H157.687V18.8H152.039V21.024ZM152.039 25.2H157.367V23.024H152.039V25.2ZM150.247 18.8V30H152.839V18.8H150.247ZM164.684 18.8V30H167.468V18.8H164.684ZM168.684 30C169.911 30 170.972 29.7707 171.868 29.312C172.764 28.8533 173.457 28.208 173.948 27.376C174.439 26.5333 174.684 25.5413 174.684 24.4C174.684 23.248 174.439 22.256 173.948 21.424C173.457 20.592 172.764 19.9467 171.868 19.488C170.972 19.0293 169.911 18.8 168.684 18.8H166.476V21.2H168.588C169.015 21.2 169.425 21.2533 169.82 21.36C170.225 21.4667 170.577 21.6427 170.876 21.888C171.185 22.1333 171.431 22.464 171.612 22.88C171.793 23.2853 171.884 23.792 171.884 24.4C171.884 25.008 171.793 25.52 171.612 25.936C171.431 26.3413 171.185 26.6667 170.876 26.912C170.577 27.1573 170.225 27.3333 169.82 27.44C169.425 27.5467 169.015 27.6 168.588 27.6H166.476V30H168.684ZM178.642 24.4C178.642 23.7387 178.77 23.1573 179.026 22.656C179.293 22.144 179.661 21.744 180.13 21.456C180.61 21.168 181.17 21.024 181.81 21.024C182.461 21.024 183.021 21.168 183.49 21.456C183.96 21.744 184.322 22.144 184.578 22.656C184.834 23.1573 184.962 23.7387 184.962 24.4C184.962 25.0613 184.829 25.648 184.562 26.16C184.306 26.6613 183.938 27.056 183.458 27.344C182.989 27.632 182.44 27.776 181.81 27.776C181.17 27.776 180.61 27.632 180.13 27.344C179.661 27.056 179.293 26.6613 179.026 26.16C178.77 25.648 178.642 25.0613 178.642 24.4ZM175.778 24.4C175.778 25.264 175.922 26.0587 176.21 26.784C176.509 27.5093 176.925 28.1387 177.458 28.672C178.002 29.2053 178.642 29.6213 179.378 29.92C180.114 30.208 180.925 30.352 181.81 30.352C182.685 30.352 183.49 30.208 184.226 29.92C184.962 29.6213 185.597 29.2053 186.13 28.672C186.674 28.1387 187.09 27.5093 187.378 26.784C187.677 26.0587 187.826 25.264 187.826 24.4C187.826 23.536 187.677 22.7467 187.378 22.032C187.08 21.3173 186.658 20.6987 186.114 20.176C185.57 19.6533 184.93 19.2533 184.194 18.976C183.469 18.688 182.674 18.544 181.81 18.544C180.957 18.544 180.162 18.688 179.426 18.976C178.69 19.2533 178.05 19.6533 177.506 20.176C176.962 20.6987 176.536 21.3173 176.226 22.032C175.928 22.7467 175.778 23.536 175.778 24.4ZM197.287 18.8V25.104L189.559 18.24V30H192.151V23.696L199.895 30.56V18.8H197.287ZM209.99 18.8V25.104L202.262 18.24V30H204.854V23.696L212.598 30.56V18.8H209.99ZM216.757 30H222.405V27.776H216.757V30ZM216.757 21.024H222.405V18.8H216.757V21.024ZM216.757 25.2H222.085V23.024H216.757V25.2ZM214.965 18.8V30H217.557V18.8H214.965ZM226.398 30H232.046V27.776H226.398V30ZM226.398 21.024H232.046V18.8H226.398V21.024ZM226.398 25.2H231.726V23.024H226.398V25.2ZM224.606 18.8V30H227.198V18.8H224.606ZM235.479 26.064L233.59 27.424C233.847 27.9573 234.204 28.448 234.663 28.896C235.121 29.344 235.66 29.7013 236.279 29.968C236.908 30.224 237.585 30.352 238.311 30.352C238.833 30.352 239.34 30.272 239.831 30.112C240.332 29.9627 240.775 29.7387 241.159 29.44C241.553 29.1413 241.863 28.7733 242.087 28.336C242.321 27.888 242.439 27.3813 242.439 26.816C242.439 26.3467 242.364 25.9307 242.215 25.568C242.065 25.2053 241.857 24.8853 241.591 24.608C241.335 24.3307 241.036 24.096 240.695 23.904C240.353 23.7013 239.985 23.5253 239.591 23.376C239.068 23.1947 238.62 23.024 238.247 22.864C237.884 22.704 237.601 22.528 237.399 22.336C237.207 22.144 237.111 21.92 237.111 21.664C237.111 21.4187 237.212 21.216 237.415 21.056C237.617 20.8853 237.911 20.8 238.295 20.8C238.583 20.8 238.849 20.8587 239.095 20.976C239.351 21.0827 239.58 21.2373 239.783 21.44C239.996 21.632 240.183 21.8613 240.343 22.128L242.407 20.976C242.215 20.592 241.937 20.2133 241.575 19.84C241.212 19.4667 240.753 19.1573 240.199 18.912C239.655 18.6667 239.009 18.544 238.263 18.544C237.537 18.544 236.876 18.672 236.279 18.928C235.692 19.1733 235.223 19.536 234.871 20.016C234.529 20.496 234.359 21.0667 234.359 21.728C234.359 22.2827 234.46 22.7573 234.663 23.152C234.865 23.536 235.121 23.8667 235.431 24.144C235.74 24.4107 236.065 24.6293 236.407 24.8C236.759 24.9707 237.068 25.104 237.335 25.2C237.879 25.4027 238.316 25.584 238.647 25.744C238.977 25.904 239.217 26.0747 239.367 26.256C239.516 26.4267 239.591 26.656 239.591 26.944C239.591 27.2853 239.463 27.5573 239.207 27.76C238.951 27.952 238.625 28.048 238.231 28.048C237.857 28.048 237.5 27.968 237.159 27.808C236.828 27.648 236.519 27.4187 236.231 27.12C235.953 26.8213 235.703 26.4693 235.479 26.064Z" fill="black"/>
    <g style="mix-blend-mode:multiply">
        <path d="M112.184 42.8V54H114.968V42.8H112.184ZM116.184 54C117.411 54 118.472 53.7707 119.368 53.312C120.264 52.8533 120.957 52.208 121.448 51.376C121.939 50.5333 122.184 49.5413 122.184 48.4C122.184 47.248 121.939 46.256 121.448 45.424C120.957 44.592 120.264 43.9467 119.368 43.488C118.472 43.0293 117.411 42.8 116.184 42.8H113.976V45.2H116.088C116.515 45.2 116.925 45.2533 117.32 45.36C117.725 45.4667 118.077 45.6427 118.376 45.888C118.685 46.1333 118.931 46.464 119.112 46.88C119.293 47.2853 119.384 47.792 119.384 48.4C119.384 49.008 119.293 49.52 119.112 49.936C118.931 50.3413 118.685 50.6667 118.376 50.912C118.077 51.1573 117.725 51.3333 117.32 51.44C116.925 51.5467 116.515 51.6 116.088 51.6H113.976V54H116.184ZM125.71 54H131.358V51.776H125.71V54ZM125.71 45.024H131.358V42.8H125.71V45.024ZM125.71 49.2H131.038V47.024H125.71V49.2ZM123.918 42.8V54H126.51V42.8H123.918ZM134.791 50.064L132.903 51.424C133.159 51.9573 133.516 52.448 133.975 52.896C134.434 53.344 134.972 53.7013 135.591 53.968C136.22 54.224 136.898 54.352 137.623 54.352C138.146 54.352 138.652 54.272 139.143 54.112C139.644 53.9627 140.087 53.7387 140.471 53.44C140.866 53.1413 141.175 52.7733 141.399 52.336C141.634 51.888 141.751 51.3813 141.751 50.816C141.751 50.3467 141.676 49.9307 141.527 49.568C141.378 49.2053 141.17 48.8853 140.903 48.608C140.647 48.3307 140.348 48.096 140.007 47.904C139.666 47.7013 139.298 47.5253 138.903 47.376C138.38 47.1947 137.932 47.024 137.559 46.864C137.196 46.704 136.914 46.528 136.711 46.336C136.519 46.144 136.423 45.92 136.423 45.664C136.423 45.4187 136.524 45.216 136.727 45.056C136.93 44.8853 137.223 44.8 137.607 44.8C137.895 44.8 138.162 44.8587 138.407 44.976C138.663 45.0827 138.892 45.2373 139.095 45.44C139.308 45.632 139.495 45.8613 139.655 46.128L141.719 44.976C141.527 44.592 141.25 44.2133 140.887 43.84C140.524 43.4667 140.066 43.1573 139.511 42.912C138.967 42.6667 138.322 42.544 137.575 42.544C136.85 42.544 136.188 42.672 135.591 42.928C135.004 43.1733 134.535 43.536 134.183 44.016C133.842 44.496 133.671 45.0667 133.671 45.728C133.671 46.2827 133.772 46.7573 133.975 47.152C134.178 47.536 134.434 47.8667 134.743 48.144C135.052 48.4107 135.378 48.6293 135.719 48.8C136.071 48.9707 136.38 49.104 136.647 49.2C137.191 49.4027 137.628 49.584 137.959 49.744C138.29 49.904 138.53 50.0747 138.679 50.256C138.828 50.4267 138.903 50.656 138.903 50.944C138.903 51.2853 138.775 51.5573 138.519 51.76C138.263 51.952 137.938 52.048 137.543 52.048C137.17 52.048 136.812 51.968 136.471 51.808C136.14 51.648 135.831 51.4187 135.543 51.12C135.266 50.8213 135.015 50.4693 134.791 50.064ZM150.66 48.4C150.66 47.7067 150.815 47.1147 151.124 46.624C151.433 46.1333 151.839 45.76 152.34 45.504C152.852 45.248 153.412 45.12 154.02 45.12C154.553 45.12 155.023 45.1893 155.428 45.328C155.833 45.456 156.196 45.6373 156.516 45.872C156.836 46.096 157.119 46.336 157.364 46.592V43.68C156.916 43.328 156.425 43.0507 155.892 42.848C155.359 42.6453 154.681 42.544 153.86 42.544C152.964 42.544 152.137 42.6827 151.38 42.96C150.623 43.2373 149.972 43.6373 149.428 44.16C148.884 44.6827 148.463 45.3013 148.164 46.016C147.865 46.7307 147.716 47.5253 147.716 48.4C147.716 49.2747 147.865 50.0693 148.164 50.784C148.463 51.4987 148.884 52.1173 149.428 52.64C149.972 53.1627 150.623 53.5627 151.38 53.84C152.137 54.1173 152.964 54.256 153.86 54.256C154.681 54.256 155.359 54.1547 155.892 53.952C156.425 53.7493 156.916 53.472 157.364 53.12V50.208C157.119 50.464 156.836 50.704 156.516 50.928C156.196 51.152 155.833 51.3333 155.428 51.472C155.023 51.6107 154.553 51.68 154.02 51.68C153.412 51.68 152.852 51.552 152.34 51.296C151.839 51.04 151.433 50.6667 151.124 50.176C150.815 49.6747 150.66 49.0827 150.66 48.4ZM157.97 45.216H161.042V54H163.746V45.216H166.834V42.8H157.97V45.216ZM168.059 42.8V54H170.843V42.8H168.059ZM172.059 54C173.286 54 174.347 53.7707 175.243 53.312C176.139 52.8533 176.832 52.208 177.323 51.376C177.814 50.5333 178.059 49.5413 178.059 48.4C178.059 47.248 177.814 46.256 177.323 45.424C176.832 44.592 176.139 43.9467 175.243 43.488C174.347 43.0293 173.286 42.8 172.059 42.8H169.851V45.2H171.963C172.39 45.2 172.8 45.2533 173.195 45.36C173.6 45.4667 173.952 45.6427 174.251 45.888C174.56 46.1333 174.806 46.464 174.987 46.88C175.168 47.2853 175.259 47.792 175.259 48.4C175.259 49.008 175.168 49.52 174.987 49.936C174.806 50.3413 174.56 50.6667 174.251 50.912C173.952 51.1573 173.6 51.3333 173.195 51.44C172.8 51.5467 172.39 51.6 171.963 51.6H169.851V54H172.059Z" fill="black"/>
    </g>
    <g clip-path="url(#clip0_4_23)">
        <path d="M42.3325 62.2092L64.3019 48.752C65.4362 47.958 66.1725 46.5377 66.0241 45.2799L63.3805 22.8322C63.2257 21.621 62.1787 20.2382 60.8497 19.7203L36.081 9.13768C34.6072 8.66349 33.0439 8.76393 31.8345 9.4512L11.2764 22.0578C10.1617 22.7117 9.41219 24.2254 9.57371 25.39L12.3731 49.4296C12.5279 50.6408 13.5749 52.0237 14.9039 52.5415L38.086 62.5227C39.9589 63.111 41.239 62.8014 42.3325 62.2092V62.2092ZM38.0625 14.6478L55.1019 21.9189C55.7631 22.2011 55.7242 22.4812 55.0175 22.5257L45.4545 23.0991C44.7414 23.1903 43.776 22.7705 43.3652 22.2375L37.7731 15.1785C37.2631 14.5841 37.4012 14.3653 38.0624 14.6477L38.0625 14.6478ZM45.2149 44.1941C45.342 44.8305 44.8143 45.1378 44.1531 44.8554L25.7978 36.9732C25.1366 36.6908 25.0495 36.1552 25.6364 35.8087L41.8943 25.84C42.4877 25.4466 43.0434 25.7142 43.1175 26.3432L45.2149 44.1942L45.2149 44.1941ZM15.8865 24.5548L33.1467 13.9642C33.7401 13.5708 34.5201 13.7744 34.9903 14.2681L41.7284 22.7713C42.1919 23.3117 41.989 23.9973 41.4483 24.3979L24.1878 34.9886C23.5944 35.3818 22.8144 35.1782 22.3442 34.6846L15.6061 26.1813C15.1489 25.5943 15.3057 24.8547 15.8862 24.5547L15.8865 24.5548ZM16.8349 45.2438L14.9718 28.8056C14.8448 28.1694 15.1814 28.0733 15.5922 28.6063L21.1841 35.6655C21.6478 36.2057 21.6831 37.1148 21.4401 37.6996L17.5219 45.3396C17.2195 45.9637 16.9024 45.9196 16.8347 45.244L16.8349 45.2438ZM38.2133 57.7343L18.7405 49.3634C18.0792 49.0811 17.7472 48.3687 18.0497 47.7446L22.7701 38.5982C23.0659 38.0208 23.8579 37.7502 24.5719 38.0399L44.0512 46.3641C44.7124 46.6463 45.0444 47.3587 44.742 47.9829L40.0216 57.1293C39.6729 57.6993 38.9338 57.9772 38.2132 57.7343L38.2133 57.7343ZM57.9968 47.2089L42.9195 56.4377C42.3261 56.831 42.0877 56.6076 42.3835 56.03L46.3018 48.3901C46.5976 47.8127 47.4285 47.262 48.1816 47.2715L57.7446 46.698C58.4643 46.5602 58.531 46.855 57.9968 47.209L57.9968 47.2089ZM59.8145 44.9872L48.3494 45.6769C47.6363 45.768 46.9548 45.245 46.8805 44.616L44.6551 25.7479C44.5281 25.1117 45.0947 24.5243 45.8014 24.4797L57.2664 23.79C57.9796 23.6989 58.6612 24.222 58.7353 24.8509L60.9608 43.719C61.0219 44.4413 60.5147 44.9894 59.8145 44.9872Z" fill="#F5821E"/>
    </g>
    <defs>
        <clipPath id="clip0_4_23">
            <rect width="58.8463" height="52.7955" fill="white" transform="translate(12.2156 5.71983) rotate(7.91736)"/>
        </clipPath>
    </defs>
</svg>
