<svg width="376" height="83" viewBox="0 0 376 83" fill="none" xmlns="http://www.w3.org/2000/svg">
    <path d="M83.0208 38.6329L86.1646 38.5935C87.3325 38.5789 88.3544 38.406 89.2303 38.075C90.122 37.7278 90.82 37.2391 91.3241 36.6087C91.8443 35.9781 92.0988 35.2229 92.0878 34.3429C92.0757 33.383 91.8018 32.5944 91.2661 31.977C90.7461 31.3435 90.0362 30.8804 89.1365 30.5876C88.2525 30.2787 87.2266 30.1315 86.0587 30.1462L79.8912 30.2235L80.1018 47.0222L86.6772 46.9397C88.0051 46.9231 89.155 46.7487 90.127 46.4165C91.0987 46.0683 91.8442 45.5469 92.3635 44.8523C92.8989 44.1575 93.1595 43.2502 93.1455 42.1303C93.1348 41.2824 92.9338 40.5648 92.5424 39.9777C92.1668 39.3743 91.6647 38.8846 91.0359 38.5084C90.4069 38.1163 89.7074 37.837 88.9372 37.6707C88.1671 37.5043 87.3741 37.4263 86.5581 37.4365L83.0064 37.481L83.0341 39.6888L86.1298 39.65C86.5298 39.645 86.8903 39.6805 87.2112 39.7565C87.548 39.8163 87.8454 39.9245 88.1034 40.0813C88.3614 40.2381 88.564 40.4436 88.7112 40.6978C88.8584 40.9519 88.9342 41.255 88.9386 41.607C88.9454 42.1509 88.8228 42.5845 88.5709 42.9077C88.3347 43.2147 88.0095 43.4428 87.5954 43.592C87.181 43.7252 86.7098 43.7951 86.1819 43.8017L84.118 43.8276L83.9863 33.3164L85.6661 33.2953C86.3701 33.2865 86.9158 33.4237 87.3034 33.7069C87.691 33.99 87.8884 34.4196 87.8956 34.9955C87.9004 35.3795 87.8166 35.7086 87.644 35.9828C87.4712 36.2409 87.2177 36.4441 86.8836 36.5923C86.5654 36.7403 86.1743 36.8173 85.7104 36.8231L82.9986 36.8571L83.0208 38.6329ZM98.2857 43.554L107.165 43.4427L106.862 40.3502L98.5348 40.4546L98.2857 43.554ZM102.585 36.1075L105.029 41.5253L104.898 42.559L106.966 46.6854L111.573 46.6277L102.494 28.8841L93.8866 46.8494L98.4703 46.7919L100.504 42.4461L100.301 41.5606L102.585 36.1075ZM124.714 29.6616L124.833 39.1169L113.112 28.967L113.334 46.6056L117.221 46.5569L117.103 37.1016L128.847 47.2512L128.626 29.6126L124.714 29.6616ZM135.617 37.9256C135.605 36.9337 135.794 36.0593 136.184 35.3023C136.591 34.5291 137.151 33.9221 137.866 33.4811C138.58 33.0401 139.417 32.8136 140.377 32.8015C141.449 32.7881 142.364 33.0327 143.123 33.5352C143.897 34.0215 144.489 34.6782 144.9 35.5051C145.326 36.3318 145.545 37.2491 145.558 38.257C145.57 39.233 145.373 40.0995 144.967 40.8567C144.576 41.5976 144.023 42.1726 143.308 42.5816C142.593 42.9906 141.756 43.2011 140.796 43.2131C139.852 43.2249 138.985 43.0198 138.196 42.5977C137.422 42.1593 136.799 41.5431 136.325 40.749C135.867 39.9546 135.631 39.0135 135.617 37.9256ZM131.322 37.9795C131.338 39.2754 131.577 40.4645 132.038 41.5468C132.5 42.6291 133.144 43.5651 133.97 44.3548C134.812 45.1443 135.787 45.7561 136.897 46.1902C138.006 46.6083 139.225 46.8091 140.553 46.7924C141.865 46.776 143.062 46.545 144.144 46.0994C145.243 45.6376 146.187 45.0017 146.977 44.1917C147.767 43.3818 148.371 42.4301 148.789 41.3368C149.207 40.2435 149.408 39.0488 149.392 37.7529C149.376 36.457 149.137 35.2759 148.676 34.2096C148.23 33.1431 147.595 32.223 146.769 31.4493C145.959 30.6754 145.008 30.0873 143.915 29.685C142.821 29.2666 141.627 29.0656 140.331 29.0818C139.051 29.0979 137.862 29.3288 136.763 29.7746C135.664 30.2044 134.704 30.8165 133.882 31.6109C133.06 32.4052 132.423 33.3413 131.973 34.419C131.522 35.4967 131.305 36.6836 131.322 37.9795ZM139.088 39.0822L147.125 46.47L151.469 46.4156L143.288 39.0296L139.088 39.0822ZM152.773 29.3099L152.915 40.589C152.928 41.6449 153.107 42.5627 153.453 43.3425C153.815 44.122 154.303 44.7639 154.917 45.2683C155.548 45.7564 156.272 46.1234 157.091 46.3691C157.911 46.6149 158.792 46.7318 159.736 46.72C160.68 46.7082 161.558 46.5691 162.371 46.3029C163.2 46.0365 163.915 45.6515 164.517 45.1479C165.134 44.6282 165.606 43.9742 165.932 43.186C166.274 42.3977 166.439 41.4756 166.426 40.4196L166.284 29.1405L162.229 29.1914L162.366 40.1825C162.377 41.0304 162.162 41.7212 161.72 42.2548C161.279 42.7883 160.602 43.0608 159.69 43.0723C158.794 43.0835 158.119 42.828 157.665 42.3056C157.21 41.7833 156.977 41.0981 156.967 40.2502L156.829 29.2591L152.773 29.3099ZM172.618 45.8625L181.09 45.7563L181.048 42.4205L172.577 42.5267L172.618 45.8625ZM172.45 32.3995L180.921 32.2933L180.879 28.9576L172.408 29.0638L172.45 32.3995ZM172.528 38.663L180.52 38.5628L180.479 35.2991L172.487 35.3993L172.528 38.663ZM169.72 29.0975L169.931 45.8961L173.818 45.8474L173.608 29.0487L169.72 29.0975ZM191.375 28.826L191.585 45.6247L195.761 45.5724L195.55 28.7737L191.375 28.826ZM197.585 45.5495C199.425 45.5264 201.012 45.1625 202.347 44.4577C203.683 43.7529 204.71 42.772 205.431 41.5148C206.151 40.2417 206.5 38.7492 206.479 37.0373C206.457 35.3095 206.07 33.8262 205.319 32.5875C204.567 31.3489 203.515 30.394 202.163 29.7229C200.81 29.0518 199.214 28.7278 197.374 28.7508L194.062 28.7923L194.108 32.392L197.275 32.3523C197.915 32.3443 198.532 32.4166 199.126 32.5692C199.736 32.7215 200.267 32.9789 200.72 33.3412C201.189 33.7034 201.563 34.1947 201.843 34.8153C202.122 35.4198 202.268 36.1781 202.279 37.09C202.29 38.0019 202.164 38.7716 201.9 39.3989C201.636 40.0103 201.274 40.5029 200.814 40.8766C200.371 41.2502 199.846 41.5208 199.24 41.6884C198.651 41.8558 198.036 41.9436 197.396 41.9516L194.228 41.9913L194.273 45.591L197.585 45.5495ZM211.873 45.3704L220.344 45.2642L220.303 41.9285L211.831 42.0346L211.873 45.3704ZM211.704 31.9074L220.176 31.8013L220.134 28.4655L211.663 28.5717L211.704 31.9074ZM211.783 38.171L219.774 38.0708L219.733 34.807L211.742 34.9072L211.783 38.171ZM208.975 28.6054L209.185 45.4041L213.073 45.3553L212.862 28.5567L208.975 28.6054ZM230.629 28.334L230.84 45.1326L234.896 45.0818L234.685 28.2831L230.629 28.334ZM233.215 31.6378L236.503 31.5966C237.319 31.5864 237.961 31.7623 238.429 32.1245C238.898 32.4866 239.137 33.0197 239.146 33.7236C239.154 34.4116 238.929 34.9424 238.469 35.3162C238.01 35.69 237.372 35.882 236.557 35.8923L233.269 35.9335L233.311 39.2692L236.598 39.228C238.022 39.2101 239.211 38.9792 240.166 38.5352C241.136 38.075 241.864 37.4338 242.35 36.6117C242.836 35.7735 243.071 34.7945 243.057 33.6746C243.043 32.5227 242.783 31.5419 242.276 30.7322C241.77 29.9224 241.026 29.3077 240.045 28.888C239.079 28.452 237.885 28.243 236.461 28.2609L233.173 28.3021L233.215 31.6378ZM249.896 37.2852L254.695 44.8336L259.447 44.774L254.096 37.2325L249.896 37.2852ZM245.581 28.1465L245.792 44.9452L249.848 44.8944L249.637 28.0957L245.581 28.1465ZM248.168 31.5464L251.456 31.5052C252 31.4983 252.465 31.5805 252.851 31.7517C253.253 31.9227 253.56 32.1748 253.773 32.5082C253.985 32.8256 254.094 33.2162 254.099 33.6802C254.105 34.1442 254.006 34.5454 253.802 34.884C253.598 35.2066 253.298 35.4584 252.9 35.6394C252.518 35.8042 252.055 35.89 251.511 35.8968L248.223 35.938L248.263 39.0818L251.838 39.037C253.278 39.0189 254.475 38.7719 255.429 38.2959C256.383 37.8199 257.103 37.1708 257.589 36.3487C258.075 35.5105 258.311 34.5555 258.297 33.4836C258.284 32.3957 258.024 31.4468 257.517 30.6371C257.011 29.8114 256.275 29.1726 255.309 28.7206C254.344 28.2687 253.141 28.0518 251.701 28.0698L248.125 28.1146L248.168 31.5464ZM264.56 36.3093C264.548 35.3174 264.729 34.443 265.103 33.6863C265.494 32.9133 266.038 32.3064 266.737 31.8657C267.451 31.4247 268.288 31.1982 269.248 31.1861C270.224 31.1739 271.067 31.3793 271.776 31.8025C272.486 32.2256 273.037 32.8188 273.431 33.5819C273.824 34.329 274.027 35.1985 274.039 36.1905C274.052 37.1824 273.863 38.0648 273.473 38.8378C273.098 39.5945 272.553 40.1934 271.839 40.6344C271.14 41.0752 270.319 41.3015 269.375 41.3133C268.415 41.3254 267.573 41.1199 266.847 40.697C266.138 40.2738 265.579 39.6888 265.169 38.9419C264.776 38.1787 264.573 37.3012 264.56 36.3093ZM260.264 36.3631C260.281 37.659 260.512 38.8482 260.957 39.9307C261.419 41.013 262.055 41.9491 262.865 42.739C263.691 43.5288 264.658 44.1407 265.768 44.5748C266.877 44.9929 268.096 45.1937 269.424 45.177C270.736 45.1606 271.941 44.9295 273.039 44.4836C274.138 44.0218 275.082 43.386 275.872 42.576C276.678 41.7658 277.29 40.8141 277.708 39.7208C278.142 38.6272 278.351 37.4325 278.335 36.1366C278.319 34.8407 278.08 33.6596 277.619 32.5933C277.157 31.527 276.514 30.607 275.688 29.8333C274.862 29.0596 273.895 28.4717 272.786 28.0695C271.692 27.6512 270.498 27.4502 269.202 27.4664C267.922 27.4825 266.733 27.7134 265.634 28.1592C264.535 28.589 263.583 29.201 262.777 29.9951C261.971 30.7893 261.342 31.7253 260.892 32.803C260.457 33.8805 260.248 35.0672 260.264 36.3631ZM277.555 46.0832L275.382 48.9426C275.721 49.1624 276.124 49.3654 276.59 49.5515C277.057 49.7537 277.579 49.9232 278.157 50.0599C278.734 50.1967 279.335 50.2612 279.959 50.2534C280.695 50.2441 281.398 50.1473 282.068 49.9629C282.738 49.7945 283.326 49.5311 283.834 49.1727C284.342 48.8303 284.736 48.3693 285.017 47.7898C285.298 47.2262 285.433 46.5445 285.423 45.7445L285.196 27.6499L280.829 27.7047L281.044 44.8873C281.053 45.5913 280.891 46.0894 280.559 46.3816C280.226 46.6737 279.876 46.8221 279.508 46.8268C279.156 46.8312 278.803 46.7556 278.449 46.6C278.095 46.4604 277.797 46.2882 277.555 46.0832ZM291.648 44.3704L300.119 44.2642L300.078 40.9285L291.606 41.0347L291.648 44.3704ZM291.479 30.9075L299.951 30.8013L299.909 27.4655L291.438 27.5717L291.479 30.9075ZM291.558 37.171L299.549 37.0708L299.508 33.807L291.517 33.9072L291.558 37.171ZM288.75 27.6054L288.96 44.4041L292.848 44.3554L292.637 27.5567L288.75 27.6054ZM301.575 31.0689L306.183 31.0112L306.348 44.1861L310.404 44.1353L310.238 30.9603L314.87 30.9023L314.825 27.2786L301.53 27.4452L301.575 31.0689ZM318.646 38.1275L315.84 40.2028C316.234 40.998 316.779 41.7272 317.475 42.3905C318.172 43.0538 318.986 43.5797 319.919 43.968C320.868 44.3401 321.886 44.5194 322.974 44.5058C323.758 44.4959 324.517 44.3664 325.25 44.1172C325.999 43.8838 326.659 43.5395 327.229 43.0843C327.815 42.6289 328.272 42.0712 328.6 41.411C328.944 40.7346 329.11 39.9725 329.099 39.1246C329.091 38.4206 328.971 37.7981 328.74 37.2569C328.509 36.7158 328.191 36.2397 327.786 35.8288C327.397 35.4176 326.944 35.0713 326.429 34.7897C325.913 34.4921 325.358 34.2351 324.763 34.0185C323.976 33.7564 323.301 33.5088 322.738 33.2758C322.191 33.0427 321.763 32.784 321.456 32.4998C321.164 32.2155 321.016 31.8813 321.011 31.4973C321.007 31.1294 321.155 30.8235 321.456 30.5797C321.756 30.3199 322.195 30.1864 322.771 30.1792C323.203 30.1738 323.604 30.2567 323.974 30.4281C324.36 30.5833 324.707 30.811 325.015 31.1111C325.338 31.3951 325.623 31.7356 325.867 32.1325L328.942 30.3658C328.646 29.7935 328.223 29.2308 327.672 28.6776C327.121 28.1245 326.428 27.6691 325.591 27.3116C324.77 26.9539 323.8 26.782 322.68 26.796C321.592 26.8097 320.603 27.0141 319.712 27.4093C318.836 27.7883 318.139 28.3411 317.62 29.0676C317.117 29.794 316.872 30.6532 316.885 31.6451C316.895 32.477 317.056 33.187 317.367 33.7752C317.679 34.3473 318.069 34.8385 318.538 35.2486C319.007 35.6428 319.499 35.9646 320.014 36.2142C320.545 36.4636 321.012 36.6577 321.414 36.7967C322.233 37.0905 322.893 37.3542 323.392 37.588C323.891 37.8217 324.254 38.0732 324.481 38.3424C324.708 38.5956 324.825 38.9381 324.83 39.3701C324.837 39.8821 324.65 40.2924 324.27 40.6012C323.889 40.894 323.403 41.0441 322.811 41.0515C322.251 41.0585 321.714 40.9453 321.199 40.7117C320.7 40.4779 320.231 40.1398 319.794 39.6972C319.372 39.2545 318.99 38.7312 318.646 38.1275ZM137.888 64.4992L138.098 81.2979L142.274 81.2456L142.064 64.4469L137.888 64.4992ZM144.098 81.2227C145.938 81.1996 147.525 80.8357 148.861 80.1309C150.196 79.4261 151.224 78.4452 151.944 77.1881C152.664 75.9149 153.013 74.4224 152.992 72.7106C152.97 70.9827 152.584 69.4994 151.832 68.2608C151.081 67.0221 150.028 66.0672 148.676 65.3961C147.323 64.725 145.727 64.401 143.887 64.424L140.576 64.4655L140.621 68.0653L143.789 68.0256C144.428 68.0175 145.045 68.0898 145.639 68.2424C146.249 68.3947 146.781 68.6521 147.233 69.0145C147.702 69.3766 148.076 69.868 148.356 70.4885C148.635 71.093 148.781 71.8513 148.792 72.7632C148.804 73.6751 148.677 74.4448 148.413 75.0721C148.149 75.6835 147.787 76.1761 147.328 76.5499C146.884 76.9235 146.36 77.194 145.754 77.3617C145.164 77.5291 144.549 77.6168 143.909 77.6248L140.741 77.6645L140.786 81.2642L144.098 81.2227ZM158.386 81.0436L166.858 80.9374L166.816 77.6017L158.345 77.7079L158.386 81.0436ZM158.218 67.5807L166.689 67.4745L166.647 64.1387L158.176 64.2449L158.218 67.5807ZM158.296 73.8442L166.288 73.744L166.247 70.4803L158.255 70.5804L158.296 73.8442ZM155.488 64.2786L155.699 81.0773L159.586 81.0286L159.376 64.2299L155.488 64.2786ZM171.932 74.9693L169.126 77.0447C169.52 77.8398 170.065 78.569 170.762 79.2323C171.458 79.8957 172.273 80.4215 173.206 80.8098C174.154 81.182 175.173 81.3612 176.261 81.3476C177.044 81.3378 177.803 81.2082 178.536 80.959C179.285 80.7256 179.945 80.3813 180.515 79.9262C181.101 79.4708 181.558 78.913 181.886 78.2528C182.23 77.5765 182.396 76.8143 182.386 75.9664C182.377 75.2624 182.257 74.6399 182.026 74.0988C181.795 73.5576 181.477 73.0816 181.072 72.6706C180.683 72.2594 180.231 71.9131 179.715 71.6315C179.199 71.334 178.644 71.0769 178.049 70.8603C177.262 70.5982 176.587 70.3506 176.024 70.1177C175.477 69.8845 175.05 69.6258 174.742 69.3417C174.45 69.0573 174.302 68.7231 174.297 68.3392C174.293 67.9712 174.441 67.6653 174.742 67.4215C175.043 67.1617 175.481 67.0282 176.057 67.021C176.489 67.0156 176.89 67.0986 177.26 67.27C177.646 67.4251 177.993 67.6528 178.301 67.953C178.624 68.2369 178.909 68.5774 179.154 68.9744L182.228 67.2077C181.933 66.6353 181.51 66.0726 180.959 65.5195C180.408 64.9663 179.714 64.511 178.877 64.1534C178.057 63.7957 177.086 63.6238 175.967 63.6379C174.879 63.6515 173.889 63.8559 172.998 64.2511C172.123 64.6301 171.426 65.1829 170.907 65.9095C170.404 66.6358 170.158 67.495 170.171 68.4869C170.181 69.3188 170.342 70.0289 170.654 70.617C170.965 71.1892 171.355 71.6803 171.824 72.0905C172.293 72.4846 172.785 72.8065 173.3 73.056C173.832 73.3054 174.298 73.4996 174.7 73.6385C175.52 73.9323 176.179 74.1961 176.678 74.4298C177.177 74.6636 177.54 74.915 177.767 75.1842C177.995 75.4374 178.111 75.78 178.116 76.2119C178.123 76.7239 177.936 77.1343 177.556 77.443C177.175 77.7358 176.689 77.8859 176.097 77.8934C175.537 77.9004 175 77.7871 174.485 77.5535C173.986 77.3198 173.518 76.9816 173.08 76.5391C172.658 76.0963 172.276 75.5731 171.932 74.9693ZM195.702 72.1752C195.689 71.1353 195.91 70.2444 196.365 69.5027C196.82 68.7609 197.421 68.1933 198.168 67.7999C198.931 67.4063 199.768 67.2038 200.68 67.1924C201.48 67.1824 202.186 67.2775 202.796 67.4779C203.406 67.6623 203.954 67.9274 204.438 68.2734C204.922 68.6033 205.351 68.958 205.724 69.3373L205.669 64.9697C204.99 64.4502 204.249 64.0434 203.445 63.7495C202.642 63.4555 201.624 63.3163 200.392 63.3317C199.048 63.3486 197.811 63.5721 196.68 64.0023C195.549 64.4325 194.581 65.0447 193.775 65.8388C192.969 66.633 192.348 67.5689 191.914 68.6464C191.479 69.7239 191.27 70.9186 191.287 72.2305C191.303 73.5424 191.542 74.7315 192.004 75.7978C192.465 76.8641 193.109 77.7841 193.934 78.5578C194.76 79.3316 195.743 79.9193 196.885 80.321C198.026 80.7227 199.268 80.9152 200.612 80.8983C201.844 80.8829 202.858 80.7182 203.654 80.4042C204.45 80.0902 205.181 79.665 205.846 79.1286L205.792 74.7609C205.428 75.1495 205.009 75.5148 204.533 75.8568C204.058 76.1988 203.517 76.4776 202.912 76.6932C202.306 76.9088 201.604 77.0216 200.804 77.0316C199.892 77.0431 199.049 76.8616 198.277 76.4873C197.52 76.1127 196.905 75.5604 196.432 74.8302C195.958 74.0841 195.715 73.1991 195.702 72.1752ZM206.607 67.2621L211.215 67.2044L211.38 80.3793L215.436 80.3285L215.271 67.1535L219.902 67.0955L219.857 63.4717L206.562 63.6384L206.607 67.2621ZM221.694 63.4487L221.904 80.2474L226.08 80.1951L225.869 63.3964L221.694 63.4487ZM227.904 80.1722C229.744 80.1491 231.331 79.7852 232.667 79.0804C234.002 78.3756 235.03 77.3947 235.75 76.1375C236.47 74.8644 236.819 73.3719 236.798 71.66C236.776 69.9322 236.39 68.4489 235.638 67.2102C234.886 65.9716 233.834 65.0167 232.482 64.3456C231.129 63.6745 229.533 63.3504 227.693 63.3735L224.382 63.415L224.427 67.0147L227.594 66.975C228.234 66.967 228.851 67.0393 229.445 67.1918C230.055 67.3442 230.587 67.6016 231.039 67.9639C231.508 68.3261 231.882 68.8174 232.162 69.438C232.441 70.0425 232.587 70.8008 232.598 71.7127C232.61 72.6246 232.483 73.3943 232.219 74.0216C231.955 74.633 231.593 75.1256 231.134 75.4993C230.69 75.8729 230.166 76.1435 229.56 76.3111C228.97 76.4785 228.355 76.5663 227.715 76.5743L224.547 76.614L224.592 80.2137L227.904 80.1722Z" fill="#F0BC74"/>
    <g clip-path="url(#clip0_4_23)">
        <path d="M42.444 67.5571L67.2969 51.7953C68.5805 50.8661 69.4183 49.2105 69.2571 47.7481L66.3859 21.6509C66.2172 20.2428 65.0429 18.6396 63.546 18.0438L35.6542 5.8572C33.9937 5.31295 32.2295 5.43752 30.8617 6.24293L7.60533 21.0084C6.34442 21.7745 5.49136 23.5389 5.66781 24.8927L8.70697 52.8408C8.87559 54.249 10.05 55.8523 11.5468 56.448L37.6516 67.9429C39.7617 68.6179 41.2075 68.2514 42.444 67.5571ZM37.8624 12.2566L57.0504 20.6296C57.795 20.9546 57.7497 21.2805 56.9522 21.3359L46.1603 22.0502C45.3553 22.1597 44.2681 21.6763 43.8074 21.0584L37.5333 12.8753C36.9608 12.1864 37.1179 11.9314 37.8624 12.2566ZM45.7854 46.5883C45.9256 47.3279 45.3287 47.688 44.5842 47.3629L23.9146 38.2854C23.17 37.9603 23.0744 37.3378 23.7383 36.9317L42.13 25.2559C42.8015 24.7955 43.427 25.1039 43.5075 25.8352L45.7854 46.5883ZM12.7941 23.8899L32.3197 11.4857C32.9912 11.0253 33.8702 11.2582 34.3982 11.8302L41.958 21.6874C42.4783 22.3136 42.2459 23.1121 41.6339 23.5808L22.108 35.985C21.4366 36.4454 20.5576 36.2124 20.0295 35.6406L12.4697 25.7833C11.9568 25.1027 12.1376 24.2417 12.7941 23.8899ZM13.7615 47.95L11.7411 28.8389C11.601 28.0995 11.9812 27.9861 12.442 28.604L18.7159 36.7872C19.2363 37.4134 19.2717 38.4706 18.9945 39.152L14.5361 48.058C14.1919 48.7854 13.8345 48.7355 13.7615 47.95ZM37.819 62.3725L15.8911 52.7324C15.1464 52.4072 14.7753 51.5802 15.1197 50.8528L20.4907 40.1907C20.8272 39.5175 21.7221 39.1989 22.5262 39.5323L44.4617 49.1181C45.2063 49.4432 45.5773 50.2701 45.233 50.9977L39.8621 61.6598C39.4658 62.3245 38.6307 62.6515 37.819 62.3725ZM60.1911 50.0317L43.135 60.841C42.4635 61.3015 42.1956 61.0427 42.5322 60.3694L46.9908 51.4636C47.3274 50.7905 48.2675 50.1459 49.1172 50.1532L59.9091 49.4387C60.7217 49.2749 60.7955 49.6172 60.1911 50.0317ZM62.2528 47.4385L49.3143 48.2975C48.5093 48.4071 47.7431 47.802 47.6624 47.0708L45.2452 25.1352C45.105 24.3957 45.7473 23.7097 46.5447 23.6544L59.4831 22.7953C60.2882 22.6858 61.0545 23.2908 61.1351 24.022L63.5523 45.9577C63.6178 46.7975 63.0428 47.4375 62.2528 47.4385Z" fill="#F0BC74"/>
    </g>
    <defs>
        <clipPath id="clip0_4_23">
            <rect width="66.3504" height="61.4463" fill="white" transform="translate(8.74596 2) rotate(7.91736)"/>
        </clipPath>
    </defs>
</svg>