<svg width="374" height="78" viewBox="0 0 374 78" fill="none" xmlns="http://www.w3.org/2000/svg">
    <path d="M81.0208 38.6329L84.1646 38.5935C85.3325 38.5789 86.3544 38.406 87.2303 38.075C88.122 37.7278 88.82 37.2391 89.3241 36.6087C89.8443 35.9781 90.0988 35.2229 90.0878 34.3429C90.0757 33.383 89.8018 32.5944 89.2661 31.977C88.7461 31.3435 88.0362 30.8804 87.1365 30.5876C86.2525 30.2787 85.2266 30.1315 84.0587 30.1462L77.8912 30.2235L78.1018 47.0222L84.6772 46.9397C86.0051 46.9231 87.155 46.7487 88.127 46.4165C89.0987 46.0683 89.8442 45.5469 90.3635 44.8523C90.8989 44.1575 91.1595 43.2502 91.1455 42.1303C91.1348 41.2824 90.9338 40.5648 90.5424 39.9777C90.1668 39.3743 89.6647 38.8846 89.0359 38.5084C88.4069 38.1163 87.7074 37.837 86.9372 37.6707C86.1671 37.5043 85.3741 37.4263 84.5581 37.4365L81.0064 37.481L81.0341 39.6888L84.1298 39.65C84.5298 39.645 84.8903 39.6805 85.2112 39.7565C85.548 39.8163 85.8454 39.9245 86.1034 40.0813C86.3614 40.2381 86.564 40.4436 86.7112 40.6978C86.8584 40.9519 86.9342 41.255 86.9386 41.607C86.9454 42.1509 86.8228 42.5845 86.5709 42.9077C86.3347 43.2147 86.0095 43.4428 85.5954 43.592C85.181 43.7252 84.7098 43.7951 84.1819 43.8017L82.118 43.8276L81.9863 33.3164L83.6661 33.2953C84.3701 33.2865 84.9158 33.4237 85.3034 33.7069C85.691 33.99 85.8884 34.4196 85.8956 34.9955C85.9004 35.3795 85.8166 35.7086 85.644 35.9828C85.4712 36.2409 85.2177 36.4441 84.8836 36.5923C84.5654 36.7403 84.1743 36.8173 83.7104 36.8231L80.9986 36.8571L81.0208 38.6329ZM96.2857 43.554L105.165 43.4427L104.862 40.3502L96.5348 40.4546L96.2857 43.554ZM100.585 36.1075L103.029 41.5253L102.898 42.559L104.966 46.6854L109.573 46.6277L100.494 28.8841L91.8866 46.8494L96.4703 46.7919L98.5039 42.4461L98.3008 41.5606L100.585 36.1075ZM122.714 29.6616L122.833 39.1169L111.112 28.967L111.334 46.6056L115.221 46.5569L115.103 37.1016L126.847 47.2512L126.626 29.6126L122.714 29.6616ZM133.617 37.9256C133.605 36.9337 133.794 36.0593 134.184 35.3023C134.591 34.5291 135.151 33.9221 135.866 33.4811C136.58 33.0401 137.417 32.8136 138.377 32.8015C139.449 32.7881 140.364 33.0327 141.123 33.5352C141.897 34.0215 142.489 34.6782 142.9 35.5051C143.326 36.3318 143.545 37.2491 143.558 38.257C143.57 39.233 143.373 40.0995 142.967 40.8567C142.576 41.5976 142.023 42.1726 141.308 42.5816C140.593 42.9906 139.756 43.2011 138.796 43.2131C137.852 43.2249 136.985 43.0198 136.196 42.5977C135.422 42.1593 134.799 41.5431 134.325 40.749C133.867 39.9546 133.631 39.0135 133.617 37.9256ZM129.322 37.9795C129.338 39.2754 129.577 40.4645 130.038 41.5468C130.5 42.6291 131.144 43.5651 131.97 44.3548C132.812 45.1443 133.787 45.7561 134.897 46.1902C136.006 46.6083 137.225 46.8091 138.553 46.7924C139.865 46.776 141.062 46.545 142.144 46.0994C143.243 45.6376 144.187 45.0017 144.977 44.1917C145.767 43.3818 146.371 42.4301 146.789 41.3368C147.207 40.2435 147.408 39.0488 147.392 37.7529C147.376 36.457 147.137 35.2759 146.676 34.2096C146.23 33.1431 145.595 32.223 144.769 31.4493C143.959 30.6754 143.008 30.0873 141.915 29.685C140.821 29.2666 139.627 29.0656 138.331 29.0818C137.051 29.0979 135.862 29.3288 134.763 29.7746C133.664 30.2044 132.704 30.8165 131.882 31.6109C131.06 32.4052 130.423 33.3413 129.973 34.419C129.522 35.4967 129.305 36.6836 129.322 37.9795ZM137.088 39.0822L145.125 46.47L149.469 46.4156L141.288 39.0296L137.088 39.0822ZM150.773 29.3099L150.915 40.589C150.928 41.6449 151.107 42.5627 151.453 43.3425C151.815 44.122 152.303 44.7639 152.917 45.2683C153.548 45.7564 154.272 46.1234 155.091 46.3691C155.911 46.6149 156.792 46.7318 157.736 46.72C158.68 46.7082 159.558 46.5691 160.371 46.3029C161.2 46.0365 161.915 45.6515 162.517 45.1479C163.134 44.6282 163.606 43.9742 163.932 43.186C164.274 42.3977 164.439 41.4756 164.426 40.4196L164.284 29.1405L160.229 29.1914L160.366 40.1825C160.377 41.0304 160.162 41.7212 159.72 42.2548C159.279 42.7883 158.602 43.0608 157.69 43.0723C156.794 43.0835 156.119 42.828 155.665 42.3056C155.21 41.7833 154.977 41.0981 154.967 40.2502L154.829 29.2591L150.773 29.3099ZM170.618 45.8625L179.09 45.7563L179.048 42.4205L170.577 42.5267L170.618 45.8625ZM170.45 32.3995L178.921 32.2933L178.879 28.9576L170.408 29.0638L170.45 32.3995ZM170.528 38.663L178.52 38.5628L178.479 35.2991L170.487 35.3993L170.528 38.663ZM167.72 29.0975L167.931 45.8961L171.818 45.8474L171.608 29.0487L167.72 29.0975ZM189.375 28.826L189.585 45.6247L193.761 45.5724L193.55 28.7737L189.375 28.826ZM195.585 45.5495C197.425 45.5264 199.012 45.1625 200.347 44.4577C201.683 43.7529 202.71 42.772 203.431 41.5148C204.151 40.2417 204.5 38.7492 204.479 37.0373C204.457 35.3095 204.07 33.8262 203.319 32.5875C202.567 31.3489 201.515 30.394 200.163 29.7229C198.81 29.0518 197.214 28.7278 195.374 28.7508L192.062 28.7923L192.108 32.392L195.275 32.3523C195.915 32.3443 196.532 32.4166 197.126 32.5692C197.736 32.7215 198.267 32.9789 198.72 33.3412C199.189 33.7034 199.563 34.1947 199.843 34.8153C200.122 35.4198 200.268 36.1781 200.279 37.09C200.29 38.0019 200.164 38.7716 199.9 39.3989C199.636 40.0103 199.274 40.5029 198.814 40.8766C198.371 41.2502 197.846 41.5208 197.24 41.6884C196.651 41.8558 196.036 41.9436 195.396 41.9516L192.228 41.9913L192.273 45.591L195.585 45.5495ZM209.873 45.3704L218.344 45.2642L218.303 41.9285L209.831 42.0346L209.873 45.3704ZM209.704 31.9074L218.176 31.8013L218.134 28.4655L209.663 28.5717L209.704 31.9074ZM209.783 38.171L217.774 38.0708L217.733 34.807L209.742 34.9072L209.783 38.171ZM206.975 28.6054L207.185 45.4041L211.073 45.3553L210.862 28.5567L206.975 28.6054ZM228.629 28.334L228.84 45.1326L233.016 45.0803L232.805 28.2816L228.629 28.334ZM234.839 45.0574C236.679 45.0344 238.267 44.6704 239.602 43.9656C240.937 43.2609 241.965 42.2799 242.685 41.0228C243.406 39.7496 243.755 38.2571 243.733 36.5453C243.712 34.8174 243.325 33.3341 242.574 32.0955C241.822 30.8568 240.77 29.9019 239.417 29.2308C238.065 28.5597 236.469 28.2357 234.629 28.2587L231.317 28.3003L231.362 31.9L234.53 31.8603C235.17 31.8523 235.787 31.9245 236.381 32.0771C236.991 32.2295 237.522 32.4868 237.975 32.8492C238.443 33.2113 238.817 33.7027 239.097 34.3232C239.377 34.9278 239.522 35.686 239.534 36.5979C239.545 37.5099 239.419 38.2795 239.155 38.9069C238.89 39.5182 238.528 40.0108 238.069 40.3846C237.626 40.7582 237.101 41.0288 236.495 41.1964C235.905 41.3638 235.29 41.4515 234.65 41.4595L231.483 41.4992L231.528 45.0989L234.839 45.0574ZM249.671 36.4709C249.658 35.4789 249.839 34.6046 250.214 33.8478C250.604 33.0749 251.148 32.468 251.847 32.0272C252.562 31.5862 253.399 31.3597 254.359 31.3477C255.335 31.3355 256.177 31.5409 256.887 31.9641C257.596 32.3872 258.147 32.9803 258.541 33.7435C258.934 34.4906 259.137 35.3601 259.15 36.352C259.162 37.344 258.973 38.2264 258.583 38.9993C258.208 39.7561 257.664 40.355 256.949 40.796C256.251 41.2368 255.43 41.4631 254.486 41.4749C253.526 41.4869 252.683 41.2815 251.958 40.8585C251.248 40.4354 250.689 39.8504 250.28 39.1034C249.886 38.3403 249.683 37.4628 249.671 36.4709ZM245.375 36.5247C245.391 37.8206 245.622 39.0098 246.068 40.0923C246.529 41.1746 247.165 42.1107 247.975 42.9006C248.801 43.6903 249.769 44.3022 250.878 44.7364C251.988 45.1545 253.206 45.3552 254.534 45.3386C255.846 45.3222 257.051 45.091 258.15 44.6452C259.248 44.1834 260.192 43.5475 260.982 42.7376C261.788 41.9274 262.4 40.9757 262.818 39.8823C263.253 38.7888 263.462 37.5941 263.445 36.2982C263.429 35.0023 263.19 33.8212 262.729 32.7549C262.268 31.6886 261.624 30.7686 260.798 29.9949C259.972 29.2212 259.005 28.6332 257.896 28.2311C256.803 27.8128 255.608 27.6117 254.312 27.628C253.032 27.644 251.843 27.875 250.744 28.3208C249.646 28.7506 248.693 29.3625 247.887 30.1567C247.081 30.9509 246.453 31.8868 246.002 32.9646C245.568 34.0421 245.359 35.2288 245.375 36.5247ZM277.53 27.721L277.649 37.1762L265.928 27.0263L266.149 44.665L270.037 44.6162L269.919 35.161L281.663 45.3106L281.442 27.6719L277.53 27.721ZM296.583 27.4821L296.702 36.9374L284.982 26.7875L285.203 44.4261L289.09 44.3774L288.972 34.9221L300.716 45.0717L300.495 27.4331L296.583 27.4821ZM306.944 44.1536L315.415 44.0474L315.373 40.7117L306.902 40.8179L306.944 44.1536ZM306.775 30.6906L315.246 30.5845L315.204 27.2487L306.733 27.3549L306.775 30.6906ZM306.853 36.9542L314.845 36.854L314.804 33.5902L306.812 33.6904L306.853 36.9542ZM304.045 27.3886L304.256 44.1873L308.144 44.1386L307.933 27.3399L304.045 27.3886ZM321.403 43.9723L329.875 43.8661L329.833 40.5304L321.362 40.6366L321.403 43.9723ZM321.235 30.5094L329.706 30.4032L329.664 27.0675L321.193 27.1737L321.235 30.5094ZM321.313 36.7729L329.305 36.6727L329.264 33.409L321.272 33.5092L321.313 36.7729ZM318.505 27.2073L318.716 44.006L322.603 43.9573L322.393 27.1586L318.505 27.2073ZM334.949 37.8981L332.143 39.9734C332.537 40.7685 333.082 41.4978 333.779 42.1611C334.475 42.8244 335.29 43.3502 336.223 43.7386C337.171 44.1107 338.19 44.29 339.278 44.2763C340.062 44.2665 340.82 44.137 341.553 43.8878C342.302 43.6544 342.962 43.3101 343.532 42.8549C344.118 42.3995 344.576 41.8417 344.903 41.1816C345.247 40.5052 345.413 39.7431 345.403 38.8951C345.394 38.1912 345.274 37.5686 345.043 37.0275C344.812 36.4863 344.494 36.0103 344.089 35.5993C343.7 35.1882 343.248 34.8418 342.732 34.5603C342.216 34.2627 341.661 34.0056 341.066 33.7891C340.279 33.5269 339.604 33.2794 339.041 33.0464C338.494 32.8132 338.067 32.5546 337.759 32.2704C337.467 31.986 337.319 31.6519 337.314 31.2679C337.31 30.8999 337.458 30.5941 337.759 30.3503C338.06 30.0905 338.498 29.957 339.074 29.9497C339.506 29.9443 339.907 30.0273 340.277 30.1987C340.663 30.3539 341.01 30.5815 341.318 30.8817C341.641 31.1657 341.926 31.5061 342.171 31.9031L345.245 30.1364C344.95 29.5641 344.527 29.0013 343.976 28.4482C343.425 27.8951 342.731 27.4397 341.894 27.0822C341.074 26.7244 340.104 26.5526 338.984 26.5666C337.896 26.5803 336.906 26.7847 336.015 27.1799C335.14 27.5589 334.443 28.1117 333.924 28.8382C333.421 29.5646 333.175 30.4237 333.188 31.4156C333.198 32.2476 333.359 32.9576 333.671 33.5458C333.982 34.1179 334.372 34.609 334.841 35.0192C335.31 35.4134 335.802 35.7352 336.317 35.9848C336.849 36.2341 337.315 36.4283 337.717 36.5673C338.537 36.861 339.196 37.1248 339.695 37.3585C340.194 37.5923 340.557 37.8438 340.784 38.1129C341.012 38.3661 341.128 38.7087 341.133 39.1407C341.14 39.6526 340.953 40.063 340.573 40.3718C340.192 40.6646 339.706 40.8147 339.114 40.8221C338.554 40.8291 338.017 40.7158 337.502 40.4823C337.003 40.2485 336.535 39.9104 336.097 39.4678C335.676 39.0251 335.293 38.5018 334.949 37.8981Z" fill="black"/>
    <g clip-path="url(#clip0_4_23)">
        <path d="M42.444 67.5571L67.2969 51.7953C68.5805 50.8661 69.4183 49.2105 69.2571 47.7481L66.3859 21.6509C66.2172 20.2428 65.0429 18.6396 63.546 18.0438L35.6542 5.8572C33.9937 5.31295 32.2295 5.43752 30.8617 6.24293L7.60533 21.0084C6.34442 21.7745 5.49136 23.5389 5.66781 24.8927L8.70697 52.8408C8.87559 54.249 10.05 55.8523 11.5468 56.448L37.6516 67.9429C39.7617 68.6179 41.2075 68.2514 42.444 67.5571ZM37.8624 12.2566L57.0504 20.6296C57.795 20.9546 57.7497 21.2805 56.9522 21.3359L46.1603 22.0502C45.3553 22.1597 44.2681 21.6763 43.8074 21.0584L37.5333 12.8753C36.9608 12.1864 37.1178 11.9313 37.8623 12.2564L37.8624 12.2566ZM45.7854 46.5883C45.9256 47.3279 45.3287 47.688 44.5842 47.3629L23.9146 38.2854C23.17 37.9603 23.0744 37.3378 23.7383 36.9317L42.13 25.2559C42.8015 24.7955 43.427 25.1039 43.5075 25.8352L45.7854 46.5884L45.7854 46.5883ZM12.7941 23.8899L32.3197 11.4857C32.9912 11.0253 33.8702 11.2582 34.3982 11.8302L41.958 21.6874C42.4783 22.3136 42.2459 23.1121 41.6339 23.5808L22.108 35.985C21.4366 36.4454 20.5576 36.2124 20.0295 35.6406L12.4697 25.7833C11.9568 25.1027 12.1373 24.2417 12.7938 23.8899L12.7941 23.8899ZM13.7615 47.95L11.7411 28.8389C11.601 28.0995 11.9812 27.9861 12.442 28.604L18.7159 36.7872C19.2363 37.4134 19.2717 38.4706 18.9945 39.152L14.5361 48.058C14.1919 48.7854 13.8343 48.7357 13.7613 47.9502L13.7615 47.95ZM37.819 62.3725L15.8911 52.7324C15.1464 52.4072 14.7753 51.5802 15.1197 50.8528L20.4907 40.1907C20.8272 39.5175 21.7221 39.1989 22.5262 39.5323L44.4617 49.1181C45.2063 49.4432 45.5773 50.2701 45.233 50.9977L39.8621 61.6598C39.4658 62.3245 38.6306 62.6515 37.8189 62.3725L37.819 62.3725ZM60.1911 50.0317L43.135 60.841C42.4635 61.3015 42.1956 61.0427 42.5322 60.3694L46.9908 51.4636C47.3274 50.7905 48.2675 50.1459 49.1172 50.1532L59.9091 49.4387C60.7217 49.2749 60.7955 49.6174 60.1911 50.0318L60.1911 50.0317ZM62.2528 47.4385L49.3143 48.2975C48.5093 48.4071 47.7431 47.802 47.6624 47.0708L45.2452 25.1352C45.105 24.3957 45.7473 23.7097 46.5447 23.6544L59.4831 22.7953C60.2882 22.6858 61.0545 23.2908 61.1351 24.022L63.5523 45.9577C63.6178 46.7975 63.0428 47.4375 62.2528 47.4385Z" fill="#F5821E"/>
    </g>
    <defs>
        <clipPath id="clip0_4_23">
            <rect width="66.3504" height="61.4463" fill="white" transform="translate(8.74596 2) rotate(7.91736)"/>
        </clipPath>
    </defs>
</svg>
